<?xml version="1.0" encoding="UTF-8" standalone="no"?>
<!DOCTYPE svg PUBLIC "-//W3C//DTD SVG 1.1//EN"
 "http://www.w3.org/Graphics/SVG/1.1/DTD/svg11.dtd">
<!-- Generated by graphviz version 2.40.1 (20161225.0304)
 -->
<!-- Title: arch Pages: 1 -->
<svg width="156pt" height="360pt"
 viewBox="0.00 0.00 156.00 359.78" xmlns="http://www.w3.org/2000/svg" xmlns:xlink="http://www.w3.org/1999/xlink">
<g id="graph0" class="graph" transform="scale(1 1) rotate(0) translate(4 355.7846)">
<title>arch</title>
<polygon fill="#ffffff" stroke="transparent" points="-4,4 -4,-355.7846 152,-355.7846 152,4 -4,4"/>
<g id="clust1" class="cluster">
<title>cluster_0xc0002143c0</title>
<polygon fill="none" stroke="#000000" points="14,-84.7846 14,-279.7846 122,-279.7846 122,-84.7846 14,-84.7846"/>
<text text-anchor="start" x="22" y="-264.5846" font-family="Helvetica,sans-Serif" font-size="14.00" fill="#000000">detector&#45;dag</text>
</g>
<!-- 0xc0002143f0 -->
<g id="node1" class="node">
<title>0xc0002143f0</title>
<polygon fill="#dbdbdb" stroke="transparent" points="33,-212.7846 33,-247.7846 100,-247.7846 100,-212.7846 33,-212.7846"/>
<text text-anchor="start" x="43" y="-226.5846" font-family="Helvetica,sans-Serif" font-size="14.00" fill="#000000">device</text>
</g>
<!-- 0xc000214420 -->
<g id="node2" class="node">
<title>0xc000214420</title>
<polygon fill="#dbdbdb" stroke="transparent" points="33,-92.7846 33,-127.7846 99,-127.7846 99,-92.7846 33,-92.7846"/>
<text text-anchor="start" x="43" y="-106.5846" font-family="Helvetica,sans-Serif" font-size="14.00" fill="#000000">server</text>
</g>
<!-- 0xc0002143f0&#45;&gt;0xc000214420 -->
<g id="edge2" class="edge">
<title>0xc0002143f0&#45;&gt;0xc000214420</title>
<path fill="none" stroke="#333333" d="M66,-212.5592C66,-192.975 66,-161.603 66,-138.8622"/>
<polygon fill="#333333" stroke="#333333" points="69.5001,-138.7883 66,-128.7884 62.5001,-138.7884 69.5001,-138.7883"/>
<text text-anchor="middle" x="85" y="-168.5846" font-family="Helvetica,sans-Serif" font-size="9.00" fill="#000000">I&#39;m alive</text>
</g>
<!-- 0xc000214330 -->
<g id="node5" class="node">
<title>0xc000214330</title>
<ellipse fill="none" stroke="#333333" cx="66" cy="-23.3923" rx="23.2851" ry="23.2851"/>
<text text-anchor="start" x="50" y="-19.6923" font-family="Helvetica,sans-Serif" font-size="14.00" fill="#000000">user</text>
</g>
<!-- 0xc000214420&#45;&gt;0xc000214330 -->
<g id="edge1" class="edge">
<title>0xc000214420&#45;&gt;0xc000214330</title>
<path fill="none" stroke="#333333" d="M66,-92.6769C66,-82.3911 66,-69.1845 66,-57.0653"/>
<polygon fill="#333333" stroke="#333333" points="69.5001,-56.7957 66,-46.7957 62.5001,-56.7957 69.5001,-56.7957"/>
<text text-anchor="middle" x="78.5" y="-67.5846" font-family="Helvetica,sans-Serif" font-size="9.00" fill="#000000">email</text>
</g>
<!-- 0xc000214360 -->
<g id="node3" class="node">
<title>0xc000214360</title>
<polygon fill="#dbdbdb" stroke="transparent" points="2,-315.7846 2,-350.7846 53,-350.7846 53,-315.7846 2,-315.7846"/>
<text text-anchor="start" x="12" y="-329.5846" font-family="Helvetica,sans-Serif" font-size="14.00" fill="#000000">plug</text>
</g>
<!-- 0xc000214360&#45;&gt;0xc0002143f0 -->
<g id="edge3" class="edge">
<title>0xc000214360&#45;&gt;0xc0002143f0</title>
<path fill="none" stroke="#333333" d="M33.9724,-315.3703C39.962,-299.5517 48.6861,-276.511 55.5171,-258.4702"/>
<polygon fill="#333333" stroke="#333333" points="58.82,-259.631 59.0879,-249.0395 52.2736,-257.1522 58.82,-259.631"/>
<text text-anchor="middle" x="59" y="-290.5846" font-family="Helvetica,sans-Serif" font-size="9.00" fill="#000000">power</text>
</g>
<!-- 0xc000214390 -->
<g id="node4" class="node">
<title>0xc000214390</title>
<polygon fill="#dbdbdb" stroke="transparent" points="73,-315.7846 73,-350.7846 138,-350.7846 138,-315.7846 73,-315.7846"/>
<text text-anchor="start" x="83" y="-329.5846" font-family="Helvetica,sans-Serif" font-size="14.00" fill="#000000">router</text>
</g>
<!-- 0xc000214390&#45;&gt;0xc0002143f0 -->
<g id="edge4" class="edge">
<title>0xc000214390&#45;&gt;0xc0002143f0</title>
<path fill="none" stroke="#333333" d="M98.0276,-315.3703C92.038,-299.5517 83.3139,-276.511 76.4829,-258.4702"/>
<polygon fill="#333333" stroke="#333333" points="79.7264,-257.1522 72.9121,-249.0395 73.18,-259.631 79.7264,-257.1522"/>
<text text-anchor="middle" x="120" y="-290.5846" font-family="Helvetica,sans-Serif" font-size="9.00" fill="#000000">connectivity</text>
</g>
</g>
</svg>
