<?xml version="1.0" encoding="UTF-8" standalone="no"?>
<!DOCTYPE svg PUBLIC "-//W3C//DTD SVG 1.1//EN"
 "http://www.w3.org/Graphics/SVG/1.1/DTD/svg11.dtd">
<!-- Generated by graphviz version 2.40.1 (20161225.0304)
 -->
<!-- Title: arch Pages: 1 -->
<svg width="198pt" height="564pt"
 viewBox="0.00 0.00 197.50 564.00" xmlns="http://www.w3.org/2000/svg" xmlns:xlink="http://www.w3.org/1999/xlink">
<g id="graph0" class="graph" transform="scale(1 1) rotate(0) translate(4 560)">
<title>arch</title>
<polygon fill="#ffffff" stroke="transparent" points="-4,4 -4,-560 193.5,-560 193.5,4 -4,4"/>
<g id="clust1" class="cluster">
<title>cluster_0xc0001f4510</title>
<polygon fill="none" stroke="#000000" points="8,-8 8,-484 116,-484 116,-8 8,-8"/>
<text text-anchor="start" x="16" y="-468.8" font-family="Helvetica,sans-Serif" font-size="14.00" fill="#000000">detector&#45;dag</text>
</g>
<g id="clust2" class="cluster">
<title>cluster_0xc0001f45a0</title>
<polygon fill="none" stroke="#000000" points="36,-128 36,-453 106,-453 106,-128 36,-128"/>
<text text-anchor="start" x="47.5" y="-437.8" font-family="Helvetica,sans-Serif" font-size="14.00" fill="#000000">device</text>
</g>
<!-- 0xc0001f45d0 -->
<g id="node1" class="node">
<title>0xc0001f45d0</title>
<polygon fill="#dbdbdb" stroke="transparent" points="55,-136 55,-171 88,-171 88,-136 55,-136"/>
<text text-anchor="start" x="65" y="-149.8" font-family="Helvetica,sans-Serif" font-size="14.00" fill="#000000">pi</text>
</g>
<!-- 0xc0001f4690 -->
<g id="node3" class="node">
<title>0xc0001f4690</title>
<polygon fill="#dbdbdb" stroke="transparent" points="35,-16 35,-51 101,-51 101,-16 35,-16"/>
<text text-anchor="start" x="45" y="-29.8" font-family="Helvetica,sans-Serif" font-size="14.00" fill="#000000">server</text>
</g>
<!-- 0xc0001f45d0&#45;&gt;0xc0001f4690 -->
<g id="edge1" class="edge">
<title>0xc0001f45d0&#45;&gt;0xc0001f4690</title>
<path fill="none" stroke="#333333" d="M70.5444,-135.7746C70.0548,-116.1904 69.2705,-84.8184 68.7019,-62.0776"/>
<polygon fill="#333333" stroke="#333333" points="72.199,-61.9131 68.4501,-52.0037 65.2012,-62.0881 72.199,-61.9131"/>
<text text-anchor="middle" x="89" y="-91.8" font-family="Helvetica,sans-Serif" font-size="9.00" fill="#000000">I&#39;m dead</text>
</g>
<!-- 0xc0001f4600 -->
<g id="node2" class="node">
<title>0xc0001f4600</title>
<polygon fill="#dbdbdb" stroke="transparent" points="48,-386 48,-421 94,-421 94,-386 48,-386"/>
<text text-anchor="start" x="58" y="-399.8" font-family="Helvetica,sans-Serif" font-size="14.00" fill="#000000">ups</text>
</g>
<!-- 0xc0001f4600&#45;&gt;0xc0001f45d0 -->
<g id="edge4" class="edge">
<title>0xc0001f4600&#45;&gt;0xc0001f45d0</title>
<path fill="none" stroke="#333333" d="M69,-385.524C68,-374.7403 67,-360.8653 67,-348.5 67,-348.5 67,-348.5 67,-236 67,-218.1659 67.9556,-198.1759 68.9326,-182.3979"/>
<polygon fill="#333333" stroke="#333333" points="72.4377,-182.4339 69.601,-172.2259 65.4528,-181.9749 72.4377,-182.4339"/>
<text text-anchor="middle" x="82.5" y="-303.8" font-family="Helvetica,sans-Serif" font-size="9.00" fill="#000000">power,</text>
<text text-anchor="middle" x="82.5" y="-293.8" font-family="Helvetica,sans-Serif" font-size="9.00" fill="#000000">status</text>
</g>
<!-- 0xc0001f4480 -->
<g id="node4" class="node">
<title>0xc0001f4480</title>
<polygon fill="#dbdbdb" stroke="transparent" points="46,-520 46,-555 97,-555 97,-520 46,-520"/>
<text text-anchor="start" x="56" y="-533.8" font-family="Helvetica,sans-Serif" font-size="14.00" fill="#000000">plug</text>
</g>
<!-- 0xc0001f4480&#45;&gt;0xc0001f4600 -->
<g id="edge2" class="edge">
<title>0xc0001f4480&#45;&gt;0xc0001f4600</title>
<path fill="none" stroke="#333333" d="M71,-519.9282C71,-497.4503 71,-458.8174 71,-432.3748"/>
<polygon fill="#333333" stroke="#333333" points="74.5001,-432.2134 71,-422.2135 67.5001,-432.2135 74.5001,-432.2134"/>
<text text-anchor="middle" x="85" y="-494.8" font-family="Helvetica,sans-Serif" font-size="9.00" fill="#000000">power</text>
</g>
<!-- 0xc0001f44b0 -->
<g id="node5" class="node">
<title>0xc0001f44b0</title>
<polygon fill="#dbdbdb" stroke="transparent" points="125,-218 125,-253 190,-253 190,-218 125,-218"/>
<text text-anchor="start" x="135" y="-231.8" font-family="Helvetica,sans-Serif" font-size="14.00" fill="#000000">router</text>
</g>
<!-- 0xc0001f44b0&#45;&gt;0xc0001f45d0 -->
<g id="edge3" class="edge">
<title>0xc0001f44b0&#45;&gt;0xc0001f45d0</title>
<path fill="none" stroke="#333333" d="M137.9138,-217.8015C126.0003,-206.4422 110.4958,-191.6588 97.4116,-179.1831"/>
<polygon fill="#333333" stroke="#333333" points="99.6855,-176.5153 90.0328,-172.1476 94.855,-181.5815 99.6855,-176.5153"/>
<text text-anchor="middle" x="147" y="-192.8" font-family="Helvetica,sans-Serif" font-size="9.00" fill="#000000">connectivity</text>
</g>
</g>
</svg>
