<?xml version="1.0" encoding="UTF-8" standalone="no"?>
<!DOCTYPE svg PUBLIC "-//W3C//DTD SVG 1.1//EN"
 "http://www.w3.org/Graphics/SVG/1.1/DTD/svg11.dtd">
<!-- Generated by graphviz version 2.40.1 (20161225.0304)
 -->
<!-- Title: arch Pages: 1 -->
<svg width="147pt" height="292pt"
 viewBox="0.00 0.00 146.50 291.78" xmlns="http://www.w3.org/2000/svg" xmlns:xlink="http://www.w3.org/1999/xlink">
<g id="graph0" class="graph" transform="scale(1 1) rotate(0) translate(4 287.7846)">
<title>arch</title>
<polygon fill="#ffffff" stroke="transparent" points="-4,4 -4,-287.7846 142.5,-287.7846 142.5,4 -4,4"/>
<!-- 0xc00021e420 -->
<g id="node1" class="node">
<title>0xc00021e420</title>
<polygon fill="#dbdbdb" stroke="transparent" points="8.5,-247.7846 8.5,-282.7846 56.5,-282.7846 56.5,-247.7846 8.5,-247.7846"/>
<text text-anchor="start" x="18.5" y="-261.5846" font-family="Helvetica,sans-Serif" font-size="14.00" fill="#000000">UPS</text>
</g>
<!-- 0xc00021e3f0 -->
<g id="node4" class="node">
<title>0xc00021e3f0</title>
<polygon fill="#dbdbdb" stroke="transparent" points=".5,-174.7846 .5,-209.7846 65.5,-209.7846 65.5,-174.7846 .5,-174.7846"/>
<text text-anchor="start" x="10.5" y="-188.5846" font-family="Helvetica,sans-Serif" font-size="14.00" fill="#000000">router</text>
</g>
<!-- 0xc00021e420&#45;&gt;0xc00021e3f0 -->
<g id="edge4" class="edge">
<title>0xc00021e420&#45;&gt;0xc00021e3f0</title>
<path fill="none" stroke="#333333" d="M32.5,-247.7397C32.5,-239.6674 32.5,-229.961 32.5,-220.9663"/>
<polygon fill="#333333" stroke="#333333" points="36.0001,-220.8749 32.5,-210.875 29.0001,-220.875 36.0001,-220.8749"/>
</g>
<!-- 0xc00021e450 -->
<g id="node2" class="node">
<title>0xc00021e450</title>
<polygon fill="#dbdbdb" stroke="transparent" points="15.5,-92.7846 15.5,-127.7846 127.5,-127.7846 127.5,-92.7846 15.5,-92.7846"/>
<text text-anchor="start" x="25.5" y="-106.5846" font-family="Helvetica,sans-Serif" font-size="14.00" fill="#000000">detector&#45;dag</text>
</g>
<!-- 0xc00021e390 -->
<g id="node5" class="node">
<title>0xc00021e390</title>
<ellipse fill="none" stroke="#333333" cx="71.5" cy="-23.3923" rx="23.2851" ry="23.2851"/>
<text text-anchor="start" x="55.5" y="-19.6923" font-family="Helvetica,sans-Serif" font-size="14.00" fill="#000000">user</text>
</g>
<!-- 0xc00021e450&#45;&gt;0xc00021e390 -->
<g id="edge3" class="edge">
<title>0xc00021e450&#45;&gt;0xc00021e390</title>
<path fill="none" stroke="#333333" d="M71.5,-92.6769C71.5,-82.3911 71.5,-69.1845 71.5,-57.0653"/>
<polygon fill="#333333" stroke="#333333" points="75.0001,-56.7957 71.5,-46.7957 68.0001,-56.7957 75.0001,-56.7957"/>
<text text-anchor="middle" x="84" y="-67.5846" font-family="Helvetica,sans-Serif" font-size="9.00" fill="#000000">email</text>
</g>
<!-- 0xc00021e3c0 -->
<g id="node3" class="node">
<title>0xc00021e3c0</title>
<polygon fill="#dbdbdb" stroke="transparent" points="86.5,-174.7846 86.5,-209.7846 137.5,-209.7846 137.5,-174.7846 86.5,-174.7846"/>
<text text-anchor="start" x="96.5" y="-188.5846" font-family="Helvetica,sans-Serif" font-size="14.00" fill="#000000">plug</text>
</g>
<!-- 0xc00021e3c0&#45;&gt;0xc00021e450 -->
<g id="edge1" class="edge">
<title>0xc00021e3c0&#45;&gt;0xc00021e450</title>
<path fill="none" stroke="#333333" d="M102.7951,-174.3941C98.7815,-165.9637 93.9339,-155.8502 89.5,-146.7846 88.1319,-143.9873 86.6947,-141.0731 85.2539,-138.1673"/>
<polygon fill="#333333" stroke="#333333" points="88.3122,-136.4571 80.7193,-129.068 82.047,-139.5793 88.3122,-136.4571"/>
<text text-anchor="middle" x="107.5" y="-149.5846" font-family="Helvetica,sans-Serif" font-size="9.00" fill="#000000">power</text>
</g>
<!-- 0xc00021e3f0&#45;&gt;0xc00021e450 -->
<g id="edge2" class="edge">
<title>0xc00021e3f0&#45;&gt;0xc00021e450</title>
<path fill="none" stroke="#333333" d="M29.7298,-174.6075C29.1709,-165.849 29.6817,-155.4024 33.5,-146.7846 35.1106,-143.1496 37.2805,-139.7056 39.7716,-136.4934"/>
<polygon fill="#333333" stroke="#333333" points="42.4138,-138.7894 46.4895,-129.0099 37.2048,-134.1133 42.4138,-138.7894"/>
<text text-anchor="middle" x="61.5" y="-149.5846" font-family="Helvetica,sans-Serif" font-size="9.00" fill="#000000">connectivity</text>
</g>
</g>
</svg>
