<?xml version="1.0" encoding="UTF-8" standalone="no"?>
<!DOCTYPE svg PUBLIC "-//W3C//DTD SVG 1.1//EN"
 "http://www.w3.org/Graphics/SVG/1.1/DTD/svg11.dtd">
<!-- Generated by graphviz version 2.40.1 (20161225.0304)
 -->
<!-- Title: arch Pages: 1 -->
<svg width="198pt" height="520pt"
 viewBox="0.00 0.00 198.00 520.00" xmlns="http://www.w3.org/2000/svg" xmlns:xlink="http://www.w3.org/1999/xlink">
<g id="graph0" class="graph" transform="scale(1 1) rotate(0) translate(4 516)">
<title>arch</title>
<polygon fill="#ffffff" stroke="transparent" points="-4,4 -4,-516 194,-516 194,4 -4,4"/>
<g id="clust1" class="cluster">
<title>cluster_0xc0002124b0</title>
<polygon fill="none" stroke="#000000" points="8,-8 8,-440 182,-440 182,-8 8,-8"/>
<text text-anchor="start" x="49" y="-424.8" font-family="Helvetica,sans-Serif" font-size="14.00" fill="#000000">detector&#45;dag</text>
</g>
<g id="clust2" class="cluster">
<title>cluster_0xc000212570</title>
<polygon fill="none" stroke="#000000" points="16,-128 16,-409 174,-409 174,-128 16,-128"/>
<text text-anchor="start" x="71.5" y="-393.8" font-family="Helvetica,sans-Serif" font-size="14.00" fill="#000000">device</text>
</g>
<!-- 0xc000212600 -->
<g id="node1" class="node">
<title>0xc000212600</title>
<polygon fill="#dbdbdb" stroke="transparent" points="97,-342 97,-377 166,-377 166,-342 97,-342"/>
<text text-anchor="start" x="107" y="-355.8" font-family="Helvetica,sans-Serif" font-size="14.00" fill="#000000">dongle</text>
</g>
<!-- 0xc0002125a0 -->
<g id="node2" class="node">
<title>0xc0002125a0</title>
<polygon fill="#dbdbdb" stroke="transparent" points="64,-136 64,-171 97,-171 97,-136 64,-136"/>
<text text-anchor="start" x="74" y="-149.8" font-family="Helvetica,sans-Serif" font-size="14.00" fill="#000000">pi</text>
</g>
<!-- 0xc000212600&#45;&gt;0xc0002125a0 -->
<g id="edge4" class="edge">
<title>0xc000212600&#45;&gt;0xc0002125a0</title>
<path fill="none" stroke="#333333" d="M120.377,-341.8915C115.1683,-331.3449 110,-317.5837 110,-304.5 110,-304.5 110,-304.5 110,-209.5 110,-199.4198 106.1229,-189.4145 101.1562,-180.733"/>
<polygon fill="#333333" stroke="#333333" points="104.0433,-178.7512 95.7029,-172.2175 98.1484,-182.5262 104.0433,-178.7512"/>
<text text-anchor="middle" x="138" y="-254.8" font-family="Helvetica,sans-Serif" font-size="9.00" fill="#000000">connectivity</text>
</g>
<!-- 0xc0002126f0 -->
<g id="node4" class="node">
<title>0xc0002126f0</title>
<polygon fill="#dbdbdb" stroke="transparent" points="47,-16 47,-51 113,-51 113,-16 47,-16"/>
<text text-anchor="start" x="57" y="-29.8" font-family="Helvetica,sans-Serif" font-size="14.00" fill="#000000">server</text>
</g>
<!-- 0xc0002125a0&#45;&gt;0xc0002126f0 -->
<g id="edge2" class="edge">
<title>0xc0002125a0&#45;&gt;0xc0002126f0</title>
<path fill="none" stroke="#333333" d="M80,-135.7746C80,-116.1904 80,-84.8184 80,-62.0776"/>
<polygon fill="#333333" stroke="#333333" points="83.5001,-62.0037 80,-52.0037 76.5001,-62.0038 83.5001,-62.0037"/>
<text text-anchor="middle" x="100" y="-91.8" font-family="Helvetica,sans-Serif" font-size="9.00" fill="#000000">I&#39;m dead</text>
</g>
<!-- 0xc0002125d0 -->
<g id="node3" class="node">
<title>0xc0002125d0</title>
<polygon fill="#dbdbdb" stroke="transparent" points="28,-342 28,-377 74,-377 74,-342 28,-342"/>
<text text-anchor="start" x="38" y="-355.8" font-family="Helvetica,sans-Serif" font-size="14.00" fill="#000000">ups</text>
</g>
<!-- 0xc0002125d0&#45;&gt;0xc0002125a0 -->
<g id="edge3" class="edge">
<title>0xc0002125d0&#45;&gt;0xc0002125a0</title>
<path fill="none" stroke="#333333" d="M47,-341.5956C45,-330.8358 43,-316.9608 43,-304.5 43,-304.5 43,-304.5 43,-209.5 43,-198.904 47.7268,-188.7923 53.8014,-180.1724"/>
<polygon fill="#333333" stroke="#333333" points="56.7389,-182.1006 60.2002,-172.0871 51.2499,-177.7565 56.7389,-182.1006"/>
<text text-anchor="middle" x="58.5" y="-259.8" font-family="Helvetica,sans-Serif" font-size="9.00" fill="#000000">status,</text>
<text text-anchor="middle" x="58.5" y="-249.8" font-family="Helvetica,sans-Serif" font-size="9.00" fill="#000000">power</text>
</g>
<!-- 0xc000212480 -->
<g id="node5" class="node">
<title>0xc000212480</title>
<polygon fill="#dbdbdb" stroke="transparent" points="26,-476 26,-511 77,-511 77,-476 26,-476"/>
<text text-anchor="start" x="36" y="-489.8" font-family="Helvetica,sans-Serif" font-size="14.00" fill="#000000">plug</text>
</g>
<!-- 0xc000212480&#45;&gt;0xc0002125d0 -->
<g id="edge1" class="edge">
<title>0xc000212480&#45;&gt;0xc0002125d0</title>
<path fill="none" stroke="#333333" d="M51,-475.9282C51,-453.4503 51,-414.8174 51,-388.3748"/>
<polygon fill="#333333" stroke="#333333" points="54.5001,-388.2134 51,-378.2135 47.5001,-388.2135 54.5001,-388.2134"/>
<text text-anchor="middle" x="65" y="-450.8" font-family="Helvetica,sans-Serif" font-size="9.00" fill="#000000">power</text>
</g>
</g>
</svg>
